<?xml version="1.0" encoding="utf-8"?>
<!-- Generator: Adobe Illustrator 15.0.0, SVG Export Plug-In . SVG Version: 6.00 Build 0)  -->
<!DOCTYPE svg PUBLIC "-//W3C//DTD SVG 1.1//EN" "http://www.w3.org/Graphics/SVG/1.1/DTD/svg11.dtd">
<svg version="1.1" id="Layer_1" xmlns="http://www.w3.org/2000/svg" xmlns:xlink="http://www.w3.org/1999/xlink" x="0px" y="0px"
	 width="134.482px" height="142.24px" viewBox="0 0 134.482 142.24" enable-background="new 0 0 134.482 142.24"
	 xml:space="preserve">
<g>
	<g>
		
			<line fill="none" stroke="#000000" stroke-linecap="round" stroke-linejoin="round" x1="24.016" y1="27.637" x2="117.983" y2="27.637"/>
		<g>
			<path d="M124.018,27.637c-2.84,1.054-6.363,2.852-8.547,4.756l1.72-4.756l-1.72-4.755
				C117.655,24.786,121.178,26.584,124.018,27.637z"/>
		</g>
	</g>
</g>
<g>
	<g>
		
			<line fill="none" stroke="#000000" stroke-linecap="round" stroke-linejoin="round" x1="24.016" y1="27.637" x2="24.016" y2="121.604"/>
		<g>
			<path d="M24.016,127.639c-1.054-2.84-2.852-6.363-4.756-8.547l4.756,1.72l4.755-1.72
				C26.867,121.275,25.069,124.799,24.016,127.639z"/>
		</g>
	</g>
</g>
<g>
	<path d="M24.928,14.681c0.528-0.096,1.295-0.168,2.003-0.168c1.115,0,1.847,0.216,2.338,0.66c0.396,0.36,0.636,0.912,0.636,1.547
		c0,1.055-0.671,1.763-1.511,2.051v0.036c0.612,0.216,0.983,0.792,1.175,1.631c0.264,1.127,0.456,1.907,0.624,2.219h-1.08
		c-0.132-0.24-0.312-0.923-0.528-1.931c-0.24-1.115-0.684-1.535-1.631-1.571h-0.983v3.502h-1.043V14.681z M25.971,18.363h1.067
		c1.115,0,1.823-0.612,1.823-1.535c0-1.043-0.755-1.5-1.859-1.5c-0.504,0-0.852,0.036-1.031,0.084V18.363z"/>
	<path d="M31.983,19.946c0.024,1.427,0.923,2.015,1.991,2.015c0.755,0,1.223-0.132,1.607-0.3l0.192,0.756
		c-0.372,0.168-1.019,0.372-1.943,0.372c-1.787,0-2.854-1.187-2.854-2.938c0-1.751,1.032-3.118,2.723-3.118
		c1.907,0,2.399,1.655,2.399,2.723c0,0.216-0.012,0.372-0.036,0.492H31.983z M35.078,19.19c0.012-0.659-0.276-1.703-1.463-1.703
		c-1.08,0-1.535,0.971-1.619,1.703H35.078z"/>
	<path d="M37.407,18.747c0-0.744-0.024-1.343-0.048-1.895h0.936l0.06,0.995h0.024c0.419-0.708,1.115-1.115,2.063-1.115
		c1.416,0,2.471,1.188,2.471,2.938c0,2.087-1.283,3.118-2.65,3.118c-0.768,0-1.439-0.336-1.787-0.912h-0.024v3.154h-1.043V18.747z
		 M38.451,20.294c0,0.156,0.012,0.3,0.048,0.432c0.192,0.732,0.828,1.235,1.583,1.235c1.116,0,1.763-0.911,1.763-2.243
		c0-1.151-0.612-2.147-1.727-2.147c-0.72,0-1.403,0.504-1.595,1.295c-0.036,0.132-0.072,0.288-0.072,0.42V20.294z"/>
	<path d="M44.091,21.589c0.324,0.192,0.875,0.408,1.403,0.408c0.756,0,1.115-0.372,1.115-0.863c0-0.504-0.3-0.768-1.067-1.056
		c-1.055-0.384-1.547-0.947-1.547-1.643c0-0.936,0.768-1.703,2.003-1.703c0.587,0,1.103,0.156,1.415,0.36l-0.252,0.768
		c-0.228-0.144-0.647-0.348-1.187-0.348c-0.624,0-0.959,0.36-0.959,0.792c0,0.479,0.335,0.695,1.091,0.996
		c0.995,0.372,1.523,0.875,1.523,1.739c0,1.031-0.803,1.751-2.159,1.751c-0.636,0-1.223-0.168-1.631-0.408L44.091,21.589z"/>
</g>
<g>
	<path d="M12.99,27.913c-0.3,0.467-0.528,1.139-0.528,1.859c0,1.067,0.563,1.691,1.379,1.691c0.743,0,1.187-0.432,1.595-1.523
		c0.48-1.319,1.175-2.135,2.303-2.135c1.259,0,2.195,1.043,2.195,2.614c0,0.815-0.192,1.427-0.396,1.775l-0.852-0.288
		c0.156-0.252,0.384-0.792,0.384-1.523c0-1.103-0.66-1.523-1.211-1.523c-0.755,0-1.127,0.492-1.559,1.607
		c-0.528,1.367-1.188,2.051-2.375,2.051c-1.247,0-2.338-0.912-2.338-2.819c0-0.779,0.24-1.631,0.528-2.063L12.99,27.913z"/>
	<path d="M14.429,34.584c-1.427,0.024-2.015,0.923-2.015,1.991c0,0.755,0.132,1.223,0.3,1.607l-0.756,0.192
		c-0.168-0.372-0.372-1.019-0.372-1.943c0-1.787,1.187-2.854,2.938-2.854c1.751,0,3.118,1.032,3.118,2.723
		c0,1.907-1.655,2.399-2.723,2.399c-0.216,0-0.372-0.012-0.492-0.036V34.584z M15.185,37.678c0.659,0.012,1.703-0.276,1.703-1.463
		c0-1.079-0.971-1.535-1.703-1.619V37.678z"/>
	<path d="M18.914,41.279h-1.391v1.511H16.72v-1.511h-3.13c-0.72,0-1.127,0.204-1.127,0.792c0,0.288,0.024,0.456,0.072,0.612
		L11.73,42.73c-0.072-0.204-0.144-0.528-0.144-0.936c0-0.492,0.168-0.888,0.444-1.14c0.324-0.288,0.839-0.408,1.523-0.408h3.167
		v-0.899h0.803v0.899h1.08L18.914,41.279z"/>
	<path d="M12.786,43.835c-0.192,0.324-0.408,0.875-0.408,1.403c0,0.756,0.372,1.115,0.863,1.115c0.504,0,0.768-0.3,1.056-1.067
		c0.384-1.055,0.947-1.547,1.643-1.547c0.936,0,1.703,0.768,1.703,2.003c0,0.587-0.156,1.103-0.36,1.415l-0.768-0.252
		c0.144-0.228,0.348-0.647,0.348-1.187c0-0.624-0.36-0.959-0.792-0.959c-0.479,0-0.695,0.335-0.996,1.091
		c-0.372,0.995-0.875,1.523-1.739,1.523c-1.031,0-1.751-0.803-1.751-2.159c0-0.636,0.168-1.223,0.408-1.631L12.786,43.835z"/>
</g>
</svg>
